<svg width="700" height="700" viewBox="0 0 700 700" fill="none" xmlns="http://www.w3.org/2000/svg">
<rect width="700" height="700" rx="214" fill="#111111"/>
<ellipse cx="291.539" cy="350" rx="67.5" ry="67" fill="#F1F1F1"/>
<path d="M291.117 125C327.895 125 357.763 154.582 358.228 191.249L358.233 192.117L358.301 193.186C361.471 238.395 402.732 279.845 447.962 282.562C485.029 282.563 515.078 312.612 515.078 349.68C515.078 386.747 485.029 416.796 447.962 416.796C403.16 419.502 362.362 459.895 358.553 504.604C358.578 505.36 358.593 506.12 358.593 506.883C358.593 543.95 328.543 574 291.476 574C254.408 574 224.359 543.95 224.359 506.883C224.36 469.816 254.408 439.767 291.476 439.767L292.516 439.702C336.531 436.709 377.131 402.497 381.48 358.949C382.184 354.704 381.922 352.782 381.922 350.218C381.922 347.654 381.636 346.449 381.27 342.096C377.542 297.774 336.736 262.342 292.17 259.299L291.117 259.233L290.249 259.228C253.582 258.763 224 228.895 224 192.117C224 155.05 254.05 125 291.117 125Z" fill="#F1F1F1"/>
</svg>
